<svg xmlns="http://www.w3.org/2000/svg" viewBox="92 118 336 300"><style>.a{animation-name:asm;animation-duration:0.34s;animation-timing-function:ease;animation-fill-mode:both}@keyframes asm{from{opacity:0}}@media (prefers-reduced-motion:reduce){.a{animation:none}}</style><g class="a" style="animation-delay:1.36s" opacity="0.090"><path d="M408.4,270.9 Q423.8,294.0 414.9,319.3 Q405.9,344.7 377.2,361.4 Q348.5,378.1 314.0,384.6 Q279.6,391.1 244.6,388.9 Q209.6,386.6 179.7,373.7 Q149.8,360.7 133.0,339.4 Q116.2,318.1 114.1,293.7 Q112.0,269.2 126.7,245.8 Q141.5,222.4 173.7,208.5 Q205.9,194.7 242.7,195.9 Q279.5,197.1 310.1,207.3 Q340.7,217.5 366.9,232.7 Q393.1,247.8 408.4,270.9 Z" fill="#1F4D17"/></g><g class="a" style="animation-delay:0.22s" opacity="0.220"><path d="M274.8,254.9 Q279.3,261.7 276.7,269.2 Q274.0,276.6 265.5,281.5 Q257.0,286.4 246.8,288.3 Q236.6,290.3 226.3,289.6 Q215.9,288.9 207.0,285.1 Q198.2,281.3 193.2,275.1 Q188.2,268.8 187.6,261.6 Q187.0,254.4 191.3,247.5 Q195.7,240.6 205.3,236.6 Q214.8,232.5 225.7,232.8 Q236.6,233.2 245.6,236.2 Q254.7,239.2 262.5,243.7 Q270.2,248.1 274.8,254.9 Z" fill="#96BC7A"/></g><g class="a" style="animation-delay:1.36s" opacity="1.000"><path d="M406.5,271.4 Q421.7,294.0 412.8,318.8 Q404.0,343.7 375.7,360.1 Q347.3,376.4 313.3,382.8 Q279.3,389.2 244.8,387.0 Q210.3,384.8 180.8,372.1 Q151.3,359.4 134.7,338.5 Q118.1,317.6 116.0,293.7 Q113.9,269.7 128.5,246.7 Q143.1,223.8 174.8,210.2 Q206.6,196.6 243.0,197.8 Q279.3,199.0 309.5,209.0 Q339.7,219.0 365.5,233.9 Q391.4,248.7 406.5,271.4 Z" fill="none" stroke="#1F4D17" stroke-width="3.0"/></g><g class="a" style="animation-delay:1.22s" opacity="1.000"><path d="M386.5,269.0 Q400.0,289.2 392.1,311.4 Q384.3,333.6 359.0,348.2 Q333.7,362.8 303.3,368.5 Q273.0,374.2 242.2,372.3 Q211.4,370.3 185.0,359.0 Q158.7,347.6 143.9,329.0 Q129.0,310.4 127.2,288.9 Q125.3,267.5 138.3,247.0 Q151.4,226.6 179.7,214.5 Q208.1,202.4 240.5,203.4 Q272.9,204.5 299.9,213.4 Q326.8,222.3 349.9,235.6 Q373.0,248.8 386.5,269.0 Z" fill="none" stroke="#26541D" stroke-width="2.9"/></g><g class="a" style="animation-delay:1.08s" opacity="1.000"><path d="M366.5,266.7 Q378.3,284.5 371.4,304.0 Q364.5,323.5 342.2,336.4 Q320.0,349.2 293.3,354.2 Q266.6,359.2 239.5,357.5 Q212.4,355.8 189.3,345.8 Q166.1,335.8 153.0,319.5 Q140.0,303.1 138.4,284.2 Q136.8,265.4 148.2,247.4 Q159.6,229.4 184.6,218.7 Q209.5,208.1 238.1,209.0 Q266.6,209.9 290.3,217.8 Q314.0,225.6 334.3,237.3 Q354.6,249.0 366.5,266.7 Z" fill="none" stroke="#2E5C24" stroke-width="2.8"/></g><g class="a" style="animation-delay:0.93s" opacity="1.000"><path d="M346.4,264.4 Q356.7,279.8 350.7,296.6 Q344.7,313.4 325.5,324.5 Q306.3,335.6 283.3,339.9 Q260.2,344.3 236.9,342.8 Q213.5,341.3 193.5,332.7 Q173.5,324.1 162.2,309.9 Q151.0,295.8 149.6,279.5 Q148.2,263.3 158.1,247.7 Q167.9,232.2 189.4,223.0 Q211.0,213.8 235.6,214.6 Q260.2,215.4 280.7,222.2 Q301.1,228.9 318.6,239.0 Q336.1,249.1 346.4,264.4 Z" fill="none" stroke="#36642A" stroke-width="2.7"/></g><g class="a" style="animation-delay:0.79s" opacity="1.000"><path d="M326.4,262.1 Q335.0,275.0 330.0,289.2 Q325.0,303.3 308.8,312.7 Q292.6,322.0 273.3,325.6 Q253.9,329.3 234.2,328.0 Q214.5,326.8 197.7,319.5 Q180.9,312.3 171.4,300.4 Q162.0,288.5 160.8,274.8 Q159.6,261.1 167.9,248.0 Q176.2,235.0 194.3,227.2 Q212.4,219.5 233.1,220.2 Q253.9,220.9 271.1,226.5 Q288.3,232.2 303.0,240.7 Q317.7,249.2 326.4,262.1 Z" fill="none" stroke="#3D6B30" stroke-width="2.6"/></g><g class="a" style="animation-delay:0.65s" opacity="1.000"><path d="M306.3,259.8 Q313.3,270.2 309.3,281.7 Q305.2,293.2 292.1,300.8 Q279.0,308.4 263.2,311.3 Q247.5,314.3 231.6,313.3 Q215.6,312.3 201.9,306.4 Q188.3,300.5 180.6,290.8 Q172.9,281.2 172.0,270.1 Q171.0,259.0 177.8,248.4 Q184.5,237.8 199.2,231.5 Q213.9,225.2 230.7,225.8 Q247.5,226.3 261.5,230.9 Q275.4,235.6 287.4,242.4 Q299.3,249.3 306.3,259.8 Z" fill="none" stroke="#537F42" stroke-width="2.5"/></g><g class="a" style="animation-delay:0.51s" opacity="1.000"><path d="M286.3,257.5 Q291.7,265.5 288.6,274.3 Q285.4,283.1 275.4,288.9 Q265.3,294.8 253.2,297.0 Q241.2,299.3 228.9,298.5 Q216.7,297.7 206.2,293.2 Q195.7,288.7 189.8,281.3 Q183.9,273.9 183.2,265.4 Q182.4,256.9 187.6,248.7 Q192.8,240.6 204.1,235.8 Q215.3,230.9 228.2,231.4 Q241.1,231.8 251.9,235.3 Q262.6,238.9 271.8,244.1 Q280.9,249.4 286.3,257.5 Z" fill="none" stroke="#6A9455" stroke-width="2.4"/></g><g class="a" style="animation-delay:0.36s" opacity="1.000"><path d="M266.3,255.1 Q270.0,260.8 267.8,266.9 Q265.7,273.0 258.6,277.1 Q251.6,281.1 243.2,282.7 Q234.8,284.3 226.3,283.8 Q217.7,283.2 210.4,280.1 Q203.1,276.9 199.0,271.8 Q194.9,266.6 194.4,260.7 Q193.9,254.7 197.5,249.0 Q201.1,243.4 208.9,240.0 Q216.8,236.7 225.8,236.9 Q234.8,237.2 242.3,239.7 Q249.7,242.2 256.1,245.9 Q262.5,249.5 266.3,255.1 Z" fill="none" stroke="#80A868" stroke-width="2.3"/></g><g class="a" style="animation-delay:0.22s" opacity="1.000"><path d="M246.2,252.8 Q248.4,256.0 247.1,259.5 Q245.9,263.0 241.9,265.2 Q237.9,267.5 233.2,268.4 Q228.4,269.3 223.6,269.0 Q218.8,268.7 214.6,266.9 Q210.5,265.2 208.2,262.2 Q205.9,259.3 205.6,256.0 Q205.3,252.6 207.3,249.4 Q209.3,246.2 213.8,244.3 Q218.2,242.4 223.3,242.5 Q228.4,242.7 232.6,244.1 Q236.9,245.5 240.5,247.6 Q244.1,249.7 246.2,252.8 Z" fill="none" stroke="#96BC7A" stroke-width="2.2"/></g><g class="a" style="animation-delay:1.10s" opacity="1.000"><path d="M253.4,335.5 Q257.9,342.4 254.0,349.5 Q250.0,356.7 239.4,361.3 Q228.8,365.9 216.8,363.2 Q204.9,360.4 197.4,355.0 Q189.9,349.5 188.1,342.0 Q186.3,334.4 195.2,328.9 Q204.1,323.4 216.0,322.5 Q228.0,321.5 238.4,325.1 Q248.8,328.6 253.4,335.5 Z" fill="#E2D2A6"/><path d="M253.4,335.5 Q257.9,342.4 254.0,349.5 Q250.0,356.7 239.4,361.3 Q228.8,365.9 216.8,363.2 Q204.9,360.4 197.4,355.0 Q189.9,349.5 188.1,342.0 Q186.3,334.4 195.2,328.9 Q204.1,323.4 216.0,322.5 Q228.0,321.5 238.4,325.1 Q248.8,328.6 253.4,335.5 Z" fill="none" stroke="#A98A4A" stroke-width="2"/></g><g class="a" style="animation-delay:0.88s" opacity="1.000"><path d="M364.6,277.0 Q372.3,283.4 364.7,289.8 Q357.1,296.2 348.1,302.1 Q339.1,307.9 327.2,304.5 Q315.3,301.1 306.9,296.0 Q298.5,290.9 296.5,282.9 Q294.4,275.0 304.6,270.1 Q314.7,265.1 326.5,263.4 Q338.3,261.7 347.6,266.1 Q357.0,270.6 364.6,277.0 Z" fill="#E2D2A6"/><path d="M364.6,277.0 Q372.3,283.4 364.7,289.8 Q357.1,296.2 348.1,302.1 Q339.1,307.9 327.2,304.5 Q315.3,301.1 306.9,296.0 Q298.5,290.9 296.5,282.9 Q294.4,275.0 304.6,270.1 Q314.7,265.1 326.5,263.4 Q338.3,261.7 347.6,266.1 Q357.0,270.6 364.6,277.0 Z" fill="none" stroke="#A98A4A" stroke-width="2"/></g><g class="a" style="animation-delay:0.22s" opacity="1.000"><line x1="226" y1="256" x2="226" y2="128" stroke="#1F3A1D" stroke-width="7" stroke-linecap="round"/><ellipse cx="226" cy="256" rx="10" ry="5" fill="none" stroke="#A98A4A" stroke-width="2.4"/><rect x="226" y="128" width="104" height="72" rx="7" fill="#C0392B" stroke="#C8A96A" stroke-width="3.5"/><text x="278.0" y="166.0" font-family="Georgia,serif" font-style="italic" font-weight="700" font-size="52" fill="#F5E6C8" text-anchor="middle" dominant-baseline="central">L</text></g></svg>